<svg width="94" height="94" viewBox="0 0 94 94" fill="none" xmlns="http://www.w3.org/2000/svg">
<g clip-path="url(#clip0_104:44)">
<path fill-rule="evenodd" clip-rule="evenodd" d="M46.4855 7.40967C23.0439 7.40967 3.95792 26.0548 3.95792 48.9547C3.95792 71.8551 23.0439 90.4997 46.4855 90.4997C69.9271 90.4997 89.0131 71.8546 89.0131 48.9547C89.0131 39.0545 85.5837 30.2007 79.76 22.9479L75.7558 27.5841C80.8327 33.6907 82.8196 40.4706 82.8196 48.9548C82.8196 68.5795 66.5739 84.4403 46.4851 84.4403C26.3964 84.4403 10.1507 68.579 10.1507 48.9548C10.1507 29.3301 26.3964 13.4599 46.4851 13.4599C52.8509 13.4599 57.6118 14.3538 62.81 17.1582L66.6144 12.2777C60.5286 8.99426 53.9135 7.40982 46.4855 7.40982V7.40967Z" fill="white"/>
<path d="M30.7454 43.4908C32.4603 43.4909 33.7575 44.8655 34.637 47.6147C36.3958 52.7693 37.6491 55.3469 38.3966 55.3469C38.9682 55.3469 39.5618 54.9174 40.1775 54.0582C52.5336 34.7279 63.9664 19.0917 74.4756 7.14973C77.2018 4.05698 81.5331 2.51054 87.4694 2.51044C88.8764 2.51052 89.8218 2.63939 90.3056 2.89704C90.7892 3.15486 91.0311 3.47702 91.0312 3.86356C91.0311 4.46501 90.3055 5.64634 88.8545 7.40746C71.8811 27.3394 56.1391 48.388 41.6284 70.5557C40.617 72.1021 38.5503 72.8754 35.4284 72.8753C32.2624 72.8753 30.3934 72.7464 29.822 72.4887C28.3269 71.8443 26.568 68.5582 24.5452 62.63C22.2586 56.058 21.1153 51.9338 21.1153 50.2587C21.1153 48.4545 22.6543 46.7148 25.7324 45.0397C27.6232 44.0087 29.2941 43.4933 30.7451 43.4932" fill="white"/>
</g>
<defs>
<clipPath id="clip0_104:44">
<rect width="94" height="94" fill="white"/>
</clipPath>
</defs>
</svg>
